<?xml version="1.0" encoding="UTF-8" standalone="no"?>
<!-- Created with Inkscape (http://www.inkscape.org/) -->

<svg
   width="63.817043mm"
   height="71.133759mm"
   viewBox="0 0 63.817043 71.133759"
   version="1.1"
   id="svg25618"
   sodipodi:docname="settings_icon_original_2.svg"
   inkscape:version="1.1.1 (3bf5ae0d25, 2021-09-20)"
   xmlns:inkscape="http://www.inkscape.org/namespaces/inkscape"
   xmlns:sodipodi="http://sodipodi.sourceforge.net/DTD/sodipodi-0.dtd"
   xmlns="http://www.w3.org/2000/svg"
   xmlns:svg="http://www.w3.org/2000/svg">
  <sodipodi:namedview
     id="namedview25620"
     pagecolor="#ffffff"
     bordercolor="#666666"
     borderopacity="1.0"
     inkscape:pageshadow="2"
     inkscape:pageopacity="0.0"
     inkscape:pagecheckerboard="0"
     inkscape:document-units="mm"
     showgrid="false"
     fit-margin-top="0"
     fit-margin-left="0"
     fit-margin-right="0"
     fit-margin-bottom="0"
     inkscape:zoom="1.4841611"
     inkscape:cx="84.896447"
     inkscape:cy="180.57339"
     inkscape:window-width="1471"
     inkscape:window-height="765"
     inkscape:window-x="1137"
     inkscape:window-y="132"
     inkscape:window-maximized="0"
     inkscape:current-layer="layer1" />
  <defs
     id="defs25615" />
  <g
     inkscape:label="Layer 1"
     inkscape:groupmode="layer"
     id="layer1"
     transform="translate(-101.43832,-64.97825)">
    <path
       style="fill:#000000;stroke:none;stroke-width:2.11667;stroke-miterlimit:4;stroke-dasharray:12.7, 2.11667;stroke-dashoffset:0;stroke-opacity:1;fill-opacity:1"
       d="m 129.90768,134.90926 c -0.67568,-0.25335 -1.11063,-0.95798 -1.45253,-2.35316 -0.0892,-0.36381 -0.14492,-2.3581 -0.12393,-4.43177 0.021,-2.07368 0.006,-3.77032 -0.0329,-3.77032 -0.0391,0 -0.90002,0.17344 -1.91314,0.38541 -4.15492,0.86932 -6.09939,-0.72251 -7.01938,-5.74638 -0.35252,-1.925 -1.06112,-3.10569 -1.86391,-3.10569 -0.76527,0 -0.98495,0.69999 -1.07949,3.43958 -0.12113,3.51076 -0.96021,5.00068 -2.82636,5.01867 -1.29368,0.0125 -2.34845,-0.6395 -2.65424,-1.64063 -0.35821,-1.17273 -0.84707,-4.74432 -0.91505,-6.68533 -0.0445,-1.26985 -0.13501,-1.56444 -0.45247,-1.47225 -0.21828,0.0634 -0.98395,0.11376 -1.70148,0.11195 -2.75345,-0.0769 -3.10524,-2.63897 -2.97777,-4.72512 0.14149,-2.61594 -0.0229,-4.27826 -0.57545,-5.82083 -0.93947,-2.6225 -1.67339,-6.183232 -1.81061,-8.78449 -0.48025,-14.352426 9.79093,-29.237037 30.19816,-29.292267 20.40723,-0.05523 31.37328,13.228346 31.48914,28.816339 0.0147,4.568857 -0.14682,5.767828 -1.20574,8.950188 -1.04468,3.13959 -2.03289,9.14487 -2.228,13.5394 -0.25134,5.66076 -0.82106,6.81903 -3.35413,6.81903 -3.07954,-0.386 -2.86489,-3.64166 -2.76853,-5.37698 0.1543,-2.6967 -0.0787,-4.54986 -0.61376,-4.88051 -0.46075,-0.28476 -1.09948,1.1603 -1.36616,3.0908 -0.96624,3.9961 -1.65026,6.54147 -6.17735,5.65078 -0.80071,-0.27217 -1.54475,-0.40557 -1.65343,-0.29645 -0.10868,0.10912 -0.16503,1.44491 -0.12523,2.96843 0.10291,4.23494 -0.97884,5.37269 -2.73295,5.21491 -1.88671,-0.0193 -3.64869,-1.82817 -3.58969,-5.4158 0.0535,-3.25364 -0.15423,-3.99632 -1.24409,-4.44776 -1.046,-0.43327 -1.81103,-0.0282 -2.34065,1.23937 -0.34367,0.82252 -0.35364,1.44643 -0.0736,4.60676 0.17813,2.01047 0.24818,4.20761 0.15567,4.88252 -0.18251,1.33157 -0.91028,2.7031 -1.6854,3.17624 -0.73949,0.4514 -2.49746,0.63083 -3.2855,0.33536 z"
       id="path22207"
       sodipodi:nodetypes="ssssssssssssccsczcssccsccsccsssssss" />
    <path
       style="fill:#ffffff;stroke-width:0.264583;fill-opacity:1"
       d="m 131.72416,108.29608 c -3.59331,-0.77123 -6.22829,-2.17416 -9.00728,-4.79572 -1.89797,-1.79045 -2.25309,-2.37703 -1.97312,-3.25915 0.32082,-1.010794 1.32696,-0.939923 3.1117,0.21919 4.11554,2.67286 7.72721,3.87173 11.57287,3.8415 2.90719,-0.0228 5.04624,-0.52284 7.9863,-1.86677 2.41235,-1.10272 3.39078,-1.06328 3.39078,0.13667 0,0.88322 -1.53525,2.46303 -3.70416,3.81168 -1.83685,1.14216 -2.59444,1.44003 -4.89479,1.92452 -2.2667,0.4774 -4.21917,0.47381 -6.4823,-0.0119 z"
       id="path25982"
       sodipodi:nodetypes="cssscsssscc" />
    <path
       id="path25979"
       style="fill:#ffffff;stroke-width:1.32586;fill-opacity:1"
       d="m 128.24485,86.413185 a 4.3576927,4.5486722 0 0 1 -4.35769,4.548671 4.3576927,4.5486722 0 0 1 -4.35769,-4.548671 4.3576927,4.5486722 0 0 1 4.35769,-4.548675 4.3576927,4.5486722 0 0 1 4.35769,4.548675 z" />
    <path
       id="path25976"
       style="fill:#ffffff;stroke-width:1.32586;fill-opacity:1"
       d="m 148.10898,89.548405 a 4.3576927,4.5486722 0 0 1 -4.35769,4.548671 4.3576927,4.5486722 0 0 1 -4.3577,-4.548671 4.3576927,4.5486722 0 0 1 4.3577,-4.548672 4.3576927,4.5486722 0 0 1 4.35769,4.548672 z" />
  </g>
</svg>
